<svg width="41" height="40" viewBox="0 0 41 40" fill="none" xmlns="http://www.w3.org/2000/svg">
<path d="M33.8536 7.36161L29.8743 3.5514C28.4103 2.14953 26.0265 2.14953 24.5624 3.5514L19.2505 8.63767L23.2297 12.4479L27.209 8.63767L33.8536 15C34.9083 13.9855 35.5005 12.6123 35.5005 11.1808C35.5005 9.74932 34.9083 8.3761 33.8536 7.36161Z" fill="white"/>
<path d="M8.76986 22.9822C9.79569 24.0059 11.4475 24.0059 12.4559 22.9822L16.7505 18.6961L13.0644 15L8.76986 19.2861C7.74403 20.3099 7.74403 21.9584 8.76986 22.9822Z" fill="white"/>
<path d="M26.0407 12.6679L31.2147 17.6822C31.3846 17.8462 31.5193 18.041 31.6112 18.2553C31.7032 18.4696 31.7505 18.6993 31.7505 18.9313C31.7505 19.1633 31.7032 19.393 31.6112 19.6074C31.5193 19.8217 31.3846 20.0164 31.2147 20.1805C31.0448 20.3445 30.8432 20.4746 30.6212 20.5634C30.3993 20.6522 30.1614 20.6979 29.9212 20.6979C29.681 20.6979 29.4431 20.6522 29.2211 20.5634C28.9992 20.4746 28.7976 20.3445 28.6277 20.1805L11.7662 36.4635C10.3351 37.8455 8.00494 37.8455 6.57382 36.4635C5.14271 35.0815 5.14271 32.8313 6.57382 31.4492L19.5456 18.9225L13.7111 13.2881C13.4537 13.0425 13.2493 12.7501 13.1098 12.4277C12.9703 12.1053 12.8985 11.7594 12.8985 11.41C12.8985 11.0606 12.9703 10.7146 13.1098 10.3922C13.2493 10.0698 13.4537 9.77738 13.7111 9.53183C14.7752 8.48646 16.5182 8.48646 17.6008 9.54955L23.4353 15.1839L26.0407 12.6679Z" fill="white"/>
</svg>
