<svg width="41" height="40" viewBox="0 0 41 40" fill="none" xmlns="http://www.w3.org/2000/svg">
<path d="M38 21.25H3C2.66848 21.25 2.35054 21.3817 2.11612 21.6161C1.8817 21.8505 1.75 22.1685 1.75 22.5V28.75C1.75199 30.7385 2.5428 32.645 3.94889 34.0511C5.35498 35.4572 7.26149 36.248 9.25 36.25H10.5V38.75C10.5 39.0815 10.6317 39.3995 10.8661 39.6339C11.1005 39.8683 11.4185 40 11.75 40C12.0815 40 12.3995 39.8683 12.6339 39.6339C12.8683 39.3995 13 39.0815 13 38.75V36.25H28V38.75C28 39.0815 28.1317 39.3995 28.3661 39.6339C28.6005 39.8683 28.9185 40 29.25 40C29.5815 40 29.8995 39.8683 30.1339 39.6339C30.3683 39.3995 30.5 39.0815 30.5 38.75V36.25H31.75C33.7385 36.248 35.645 35.4572 37.0511 34.0511C38.4572 32.645 39.248 30.7385 39.25 28.75V22.5C39.25 22.1685 39.1183 21.8505 38.8839 21.6161C38.6495 21.3817 38.3315 21.25 38 21.25Z" fill="white"/>
<path d="M20.5 7.625V6.25C20.5 5.25544 20.8951 4.30161 21.5983 3.59835C22.3016 2.89509 23.2554 2.5 24.25 2.5C25.2446 2.5 26.1984 2.89509 26.9017 3.59835C27.6049 4.30161 28 5.25544 28 6.25V18.75H30.5V6.25C30.5 4.5924 29.8415 3.00269 28.6694 1.83058C27.4973 0.65848 25.9076 0 24.25 0C22.5924 0 21.0027 0.65848 19.8306 1.83058C18.6585 3.00269 18 4.5924 18 6.25V7.625C16.5893 7.91512 15.3217 8.68273 14.4109 9.79844C13.5001 10.9141 13.0018 12.3097 13 13.75C13 14.0815 13.1317 14.3995 13.3661 14.6339C13.6005 14.8683 13.9185 15 14.25 15H24.25C24.5815 15 24.8995 14.8683 25.1339 14.6339C25.3683 14.3995 25.5 14.0815 25.5 13.75C25.4982 12.3097 24.9999 10.9141 24.0891 9.79844C23.1783 8.68273 21.9107 7.91512 20.5 7.625Z" fill="white"/>
</svg>
