<svg width="41" height="40" viewBox="0 0 41 40" fill="none" xmlns="http://www.w3.org/2000/svg">
<path d="M36.7948 9.97837H19.9752C19.4047 9.41933 18.6817 9.04118 17.8971 8.89134C17.1125 8.74151 16.3011 8.82665 15.5647 9.1361C14.8283 9.44555 14.1996 9.96552 13.7575 10.6308C13.3154 11.2961 13.0796 12.0771 13.0796 12.8759C13.0796 13.6747 13.3154 14.4557 13.7575 15.1211C14.1996 15.7864 14.8283 16.3063 15.5647 16.6158C16.3011 16.9252 17.1125 17.0104 17.8971 16.8605C18.6817 16.7107 19.4047 16.3325 19.9752 15.7735H36.7948C36.9485 15.7735 37.0959 15.7125 37.2046 15.6038C37.3133 15.4951 37.3744 15.3477 37.3744 15.194V10.5579C37.3744 10.4042 37.3133 10.2568 37.2046 10.1481C37.0959 10.0394 36.9485 9.97837 36.7948 9.97837Z" fill="white"/>
<path d="M22.1599 0.729492H10.7279C9.96996 0.729492 9.24302 1.0306 8.70704 1.56658C8.17107 2.10256 7.86996 2.8295 7.86996 3.58749L7.32373 36.4132C7.32373 37.1712 7.62484 37.8981 8.16082 38.4341C8.69679 38.9701 9.42374 39.2712 10.1817 39.2712H21.6137C22.3717 39.2712 23.0986 38.9701 23.6346 38.4341C24.1706 37.8981 24.4717 37.1712 24.4717 36.4132L25.0179 17.8775H21.1975C19.8794 18.9422 18.1944 19.4438 16.5086 19.273C14.8229 19.1023 13.2726 18.2732 12.1948 16.9658C11.4878 16.1089 11.0149 15.0834 10.8221 13.9893C10.6293 12.8953 10.7232 11.7699 11.0948 10.7229C11.4663 9.67598 12.1027 8.74312 12.942 8.01527C13.7812 7.28743 14.7948 6.78943 15.8838 6.56981C16.3037 6.48773 16.7305 6.4461 17.1584 6.44549C18.629 6.44238 20.0555 6.94716 21.1968 7.87449H25.0179V3.58749C25.0179 2.8295 24.7168 2.10256 24.1808 1.56658C23.6448 1.0306 22.9179 0.729492 22.1599 0.729492ZM15.8977 24.2667C16.5258 24.2637 17.1373 24.4688 17.6367 24.8497C18.1361 25.2307 18.4953 25.7662 18.6585 26.3728C18.8216 26.9794 18.7795 27.6229 18.5386 28.203C18.2977 28.7831 17.8715 29.2672 17.3267 29.5797V32.8407C17.3267 33.0302 17.2514 33.2119 17.1174 33.3459C16.9834 33.4799 16.8017 33.5552 16.6122 33.5552H15.1832C14.9937 33.5552 14.812 33.4799 14.678 33.3459C14.544 33.2119 14.4687 33.0302 14.4687 32.8407V29.5797C13.9239 29.2672 13.4978 28.7831 13.2569 28.203C13.0159 27.6229 12.9738 26.9794 13.1369 26.3728C13.3001 25.7662 13.6594 25.2307 14.1588 24.8497C14.6581 24.4688 15.2696 24.2637 15.8977 24.2667Z" fill="white"/>
</svg>
