<svg width="41" height="40" viewBox="0 0 41 40" fill="none" xmlns="http://www.w3.org/2000/svg">
<path d="M29.1798 7.95473C28.6228 8.53409 28.3191 9.31066 28.3355 10.1136C28.3697 11.7856 29.7549 13.1134 31.4294 13.0793C32.2335 13.0629 32.9981 12.7282 33.5551 12.1488L37.5855 7.95657C38.3824 9.53889 38.6685 11.329 38.4043 13.0804C38.1401 14.8318 37.3387 16.4584 36.1103 17.7361C34.8819 19.0138 33.2871 19.8798 31.5454 20.2149C29.8036 20.55 28.0007 20.3376 26.3849 19.6071C24.2516 18.0192 23.3051 17.0993 22.0095 15.413C21.2126 13.8307 20.9265 12.0405 21.1907 10.2891C21.4549 8.53774 22.2564 6.91119 23.4847 5.63348C24.7131 4.35578 26.308 3.48976 28.0497 3.15468C29.7914 2.8196 31.5943 3.03194 33.2102 3.76246L29.1798 7.95473Z" fill="white"/>
<path d="M14.1158 23.7865L18.5138 27.9566L11.9846 34.8827C11.4276 35.462 10.6629 35.7967 9.85881 35.8131C9.0547 35.8295 8.27699 35.5263 7.69678 34.9701C7.11658 34.4139 6.7814 33.6504 6.76498 32.8474C6.74856 32.0445 7.05225 31.2679 7.60923 30.6886L14.1158 23.7865Z" fill="white"/>
<path d="M19.6656 16.3031L33.9581 29.8549C35.3708 31.1944 35.446 33.4181 34.1269 34.8497C32.7781 36.3136 30.49 36.3907 29.0454 35.021L14.7529 21.4692C13.5889 20.3655 13.3329 18.6618 14.0166 17.2953L7.38164 10.8991L6.15128 12.1289L2.5 7.21036L4.75829 4.7162L10.0381 8.24396L8.81768 9.46376L15.4038 15.8128C16.7384 15.0304 18.4841 15.1828 19.6656 16.3031Z" fill="white"/>
</svg>
