<svg width="41" height="40" viewBox="0 0 41 40" fill="none" xmlns="http://www.w3.org/2000/svg">
<path d="M35.221 2.95898H31.6954C31.4727 2.95898 31.2696 3.08466 31.1698 3.28377L28.1698 9.28406L25.1698 3.28377C25.0699 3.08466 24.8668 2.95898 24.6441 2.95898H11.7168C11.392 2.95898 11.1292 3.22208 11.1292 3.54659V18.9291L5.56875 15.3905C5.33692 15.2433 5.03279 15.2755 4.83769 15.4708L1.89966 18.4089C1.67989 18.6289 1.66898 18.9821 1.87613 19.2148L11.1292 29.6247V36.4525C11.1292 36.777 11.392 37.0401 11.7168 37.0401H18.1805V27.6384C18.1805 27.3139 18.4433 27.0508 18.7681 27.0508C19.0929 27.0508 19.3557 27.3139 19.3557 27.6384V37.0401H35.221C35.5458 37.0401 35.8086 36.777 35.8086 36.4525V3.54659C35.8086 3.22208 35.5458 2.95898 35.221 2.95898ZM19.3557 24.1128C19.3557 24.4373 19.0929 24.7004 18.7681 24.7004C18.4433 24.7004 18.1805 24.4373 18.1805 24.1128V22.9376C18.1805 22.6131 18.4433 22.35 18.7681 22.35C19.0929 22.35 19.3557 22.6131 19.3557 22.9376V24.1128Z" fill="white"/>
</svg>
