<svg width="41" height="40" viewBox="0 0 41 40" fill="none" xmlns="http://www.w3.org/2000/svg">
<path d="M5.5 9C5.5 8.44771 5.94772 8 6.5 8H18.5816C19.1339 8 19.5816 8.44772 19.5816 9V13.7568C19.5816 14.309 19.1339 14.7568 18.5816 14.7568H6.5C5.94771 14.7568 5.5 14.309 5.5 13.7568V9Z" fill="white"/>
<path d="M5.5 18.1216C5.5 17.5693 5.94772 17.1216 6.5 17.1216H12.4592C13.0115 17.1216 13.4592 17.5693 13.4592 18.1216V22.8784C13.4592 23.4307 13.0115 23.8784 12.4592 23.8784H6.5C5.94772 23.8784 5.5 23.4307 5.5 22.8784V18.1216Z" fill="white"/>
<path d="M15.2959 18.1216C15.2959 17.5693 15.7436 17.1216 16.2959 17.1216H28.3776C28.9298 17.1216 29.3776 17.5693 29.3776 18.1216V22.8784C29.3776 23.4307 28.9298 23.8784 28.3776 23.8784H16.2959C15.7436 23.8784 15.2959 23.4307 15.2959 22.8784V18.1216Z" fill="white"/>
<path d="M5.5 27.2432C5.5 26.691 5.94772 26.2432 6.5 26.2432H18.5816C19.1339 26.2432 19.5816 26.691 19.5816 27.2432V32C19.5816 32.5523 19.1339 33 18.5816 33H6.5C5.94771 33 5.5 32.5523 5.5 32V27.2432Z" fill="white"/>
<path d="M21.4184 27.2432C21.4184 26.691 21.8661 26.2432 22.4184 26.2432H34.5C35.0523 26.2432 35.5 26.691 35.5 27.2432V32C35.5 32.5523 35.0523 33 34.5 33H22.4184C21.8661 33 21.4184 32.5523 21.4184 32V27.2432Z" fill="white"/>
</svg>
