<svg width="32" height="32" viewBox="0 0 32 32" fill="none" xmlns="http://www.w3.org/2000/svg">
<rect width="32" height="32" rx="16" fill="white"/>
<path d="M22.667 19.2797V21.2797C22.6677 21.4654 22.6297 21.6492 22.5553 21.8193C22.4809 21.9894 22.3718 22.1421 22.235 22.2676C22.0982 22.3932 21.9367 22.4887 21.7608 22.5482C21.5849 22.6077 21.3985 22.6298 21.2136 22.6131C19.1622 22.3902 17.1916 21.6892 15.4603 20.5664C13.8495 19.5428 12.4838 18.1772 11.4603 16.5664C10.3336 14.8272 9.63244 12.8471 9.41361 10.7864C9.39695 10.6021 9.41886 10.4162 9.47795 10.2408C9.53703 10.0654 9.63199 9.9042 9.75679 9.76749C9.88159 9.63077 10.0335 9.52155 10.2028 9.44675C10.3721 9.37196 10.5552 9.33325 10.7403 9.33307H12.7403C13.0638 9.32989 13.3775 9.44446 13.6228 9.65543C13.8681 9.8664 14.0283 10.1594 14.0736 10.4797C14.158 11.1198 14.3146 11.7482 14.5403 12.3531C14.63 12.5917 14.6494 12.851 14.5962 13.1003C14.5431 13.3496 14.4195 13.5785 14.2403 13.7597L13.3936 14.6064C14.3427 16.2754 15.7246 17.6574 17.3936 18.6064L18.2403 17.7597C18.4215 17.5805 18.6504 17.457 18.8997 17.4038C19.149 17.3506 19.4083 17.37 19.647 17.4597C20.2518 17.6854 20.8802 17.842 21.5203 17.9264C21.8441 17.9721 22.1399 18.1352 22.3513 18.3847C22.5627 18.6343 22.6751 18.9528 22.667 19.2797Z" fill="#15B2F5"/>
</svg>
