<svg width="148" height="32" viewBox="0 0 149 32" fill="none" xmlns="http://www.w3.org/2000/svg">
<path fill-rule="evenodd" clip-rule="evenodd" d="M14.5798 7.75008C15.7221 6.91013 17.2778 6.91013 18.4201 7.75008L25.308 12.8147C26.1387 13.4255 26.6292 14.3951 26.6292 15.4262V25.758H20.1465V17.0661L16.4999 14.3848L12.8534 17.0661V25.758H6.37061V15.4262C6.37061 14.3951 6.86114 13.4255 7.69182 12.8147L14.5798 7.75008Z" fill="#15B2F5"/>
<rect x="12.895" y="25.7578" width="7.24329" height="5.24219" fill="white"/>
<path d="M40.5 24.796V6.91602H44.22V14.644H51.18V6.91602H54.9V24.796H51.18V17.884H44.22V24.796H40.5Z" fill="white"/>
<path d="M64.3181 25.084C63.0221 25.084 61.8381 24.788 60.7661 24.196C59.7101 23.604 58.8621 22.796 58.2221 21.772C57.5981 20.732 57.2861 19.556 57.2861 18.244C57.2861 16.916 57.5981 15.74 58.2221 14.716C58.8621 13.692 59.7101 12.884 60.7661 12.292C61.8381 11.7 63.0221 11.404 64.3181 11.404C65.6141 11.404 66.7901 11.7 67.8461 12.292C68.9021 12.884 69.7421 13.692 70.3661 14.716C71.0061 15.74 71.3261 16.916 71.3261 18.244C71.3261 19.556 71.0061 20.732 70.3661 21.772C69.7421 22.796 68.9021 23.604 67.8461 24.196C66.7901 24.788 65.6141 25.084 64.3181 25.084ZM64.3181 21.844C64.9741 21.844 65.5421 21.692 66.0221 21.388C66.5181 21.084 66.9021 20.66 67.1741 20.116C67.4621 19.572 67.6061 18.948 67.6061 18.244C67.6061 17.54 67.4621 16.924 67.1741 16.396C66.9021 15.852 66.5181 15.428 66.0221 15.124C65.5421 14.804 64.9741 14.644 64.3181 14.644C63.6621 14.644 63.0861 14.804 62.5901 15.124C62.0941 15.428 61.7021 15.852 61.4141 16.396C61.1421 16.924 61.0061 17.54 61.0061 18.244C61.0061 18.948 61.1421 19.572 61.4141 20.116C61.7021 20.66 62.0941 21.084 62.5901 21.388C63.0861 21.692 63.6621 21.844 64.3181 21.844Z" fill="white"/>
<path d="M73.4469 24.796V11.692H76.8069V14.884L76.4469 14.356C76.6389 13.348 77.1029 12.604 77.8389 12.124C78.5749 11.644 79.4549 11.404 80.4789 11.404C81.5669 11.404 82.5189 11.684 83.3349 12.244C84.1669 12.788 84.6869 13.524 84.8949 14.452L83.8629 14.548C84.2949 13.476 84.9109 12.684 85.7109 12.172C86.5109 11.66 87.4469 11.404 88.5189 11.404C89.4629 11.404 90.2949 11.612 91.0149 12.028C91.7509 12.444 92.3269 13.028 92.7429 13.78C93.1589 14.516 93.3669 15.38 93.3669 16.372V24.796H89.7669V17.14C89.7669 16.628 89.6709 16.188 89.4789 15.82C89.3029 15.452 89.0469 15.164 88.7109 14.956C88.3749 14.748 87.9669 14.644 87.4869 14.644C87.0229 14.644 86.6149 14.748 86.2629 14.956C85.9269 15.164 85.6629 15.452 85.4709 15.82C85.2949 16.188 85.2069 16.628 85.2069 17.14V24.796H81.6069V17.14C81.6069 16.628 81.5109 16.188 81.3189 15.82C81.1429 15.452 80.8869 15.164 80.5509 14.956C80.2149 14.748 79.8069 14.644 79.3269 14.644C78.8629 14.644 78.4549 14.748 78.1029 14.956C77.7669 15.164 77.5029 15.452 77.3109 15.82C77.1349 16.188 77.0469 16.628 77.0469 17.14V24.796H73.4469Z" fill="white"/>
<path d="M102.048 25.084C100.656 25.084 99.448 24.78 98.424 24.172C97.4 23.548 96.608 22.716 96.048 21.676C95.488 20.636 95.208 19.484 95.208 18.22C95.208 16.908 95.496 15.74 96.072 14.716C96.664 13.692 97.456 12.884 98.448 12.292C99.44 11.7 100.56 11.404 101.808 11.404C102.848 11.404 103.768 11.572 104.568 11.908C105.368 12.228 106.04 12.684 106.584 13.276C107.144 13.868 107.568 14.556 107.856 15.34C108.144 16.108 108.288 16.948 108.288 17.86C108.288 18.116 108.272 18.372 108.24 18.628C108.224 18.868 108.184 19.076 108.12 19.252H98.304V16.612H106.08L104.376 17.86C104.536 17.172 104.528 16.564 104.352 16.036C104.176 15.492 103.864 15.068 103.416 14.764C102.984 14.444 102.448 14.284 101.808 14.284C101.184 14.284 100.648 14.436 100.2 14.74C99.752 15.044 99.416 15.492 99.192 16.084C98.968 16.676 98.88 17.396 98.928 18.244C98.864 18.98 98.952 19.628 99.192 20.188C99.432 20.748 99.8 21.188 100.296 21.508C100.792 21.812 101.392 21.964 102.096 21.964C102.736 21.964 103.28 21.836 103.728 21.58C104.192 21.324 104.552 20.972 104.808 20.524L107.688 21.892C107.432 22.532 107.024 23.092 106.464 23.572C105.92 24.052 105.272 24.428 104.52 24.7C103.768 24.956 102.944 25.084 102.048 25.084Z" fill="white"/>
<path d="M110.672 24.796V6.91602H117.536C118.768 6.91602 119.856 7.13202 120.8 7.56402C121.76 7.99602 122.512 8.63602 123.056 9.48402C123.6 10.332 123.872 11.38 123.872 12.628C123.872 13.844 123.592 14.876 123.032 15.724C122.488 16.572 121.736 17.22 120.776 17.668C119.832 18.1 118.752 18.316 117.536 18.316H114.392V24.796H110.672ZM114.392 15.076H117.56C118.088 15.076 118.544 14.972 118.928 14.764C119.312 14.556 119.608 14.268 119.816 13.9C120.04 13.532 120.152 13.108 120.152 12.628C120.152 12.132 120.04 11.7 119.816 11.332C119.608 10.964 119.312 10.676 118.928 10.468C118.544 10.26 118.088 10.156 117.56 10.156H114.392V15.076Z" fill="white"/>
<path d="M125.994 24.796V11.692H129.354V14.836L129.114 14.38C129.402 13.276 129.874 12.532 130.53 12.148C131.202 11.748 131.994 11.548 132.906 11.548H133.674V14.668H132.546C131.666 14.668 130.954 14.94 130.41 15.484C129.866 16.012 129.594 16.764 129.594 17.74V24.796H125.994Z" fill="white"/>
<path d="M141.756 25.084C140.46 25.084 139.276 24.788 138.204 24.196C137.148 23.604 136.3 22.796 135.66 21.772C135.036 20.732 134.724 19.556 134.724 18.244C134.724 16.916 135.036 15.74 135.66 14.716C136.3 13.692 137.148 12.884 138.204 12.292C139.276 11.7 140.46 11.404 141.756 11.404C143.052 11.404 144.228 11.7 145.284 12.292C146.34 12.884 147.18 13.692 147.804 14.716C148.444 15.74 148.764 16.916 148.764 18.244C148.764 19.556 148.444 20.732 147.804 21.772C147.18 22.796 146.34 23.604 145.284 24.196C144.228 24.788 143.052 25.084 141.756 25.084ZM141.756 21.844C142.412 21.844 142.98 21.692 143.46 21.388C143.956 21.084 144.34 20.66 144.612 20.116C144.9 19.572 145.044 18.948 145.044 18.244C145.044 17.54 144.9 16.924 144.612 16.396C144.34 15.852 143.956 15.428 143.46 15.124C142.98 14.804 142.412 14.644 141.756 14.644C141.1 14.644 140.524 14.804 140.028 15.124C139.532 15.428 139.14 15.852 138.852 16.396C138.58 16.924 138.444 17.54 138.444 18.244C138.444 18.948 138.58 19.572 138.852 20.116C139.14 20.66 139.532 21.084 140.028 21.388C140.524 21.692 141.1 21.844 141.756 21.844Z" fill="white"/>
</svg>
