<svg width="17" height="16" viewBox="0 0 17 16" fill="none" xmlns="http://www.w3.org/2000/svg">
<path d="M10.6138 7L8.11377 9L6.61377 8.05882" stroke="white" stroke-width="1.5" stroke-linecap="round" stroke-linejoin="round"/>
<path d="M7.90139 1.72313C8.29309 1.32552 8.93445 1.32552 9.32615 1.72313L10.3581 2.77068C10.5479 2.96331 10.8076 3.07088 11.078 3.06886L12.5485 3.05785C13.1066 3.05367 13.5601 3.50718 13.5559 4.06531L13.5449 5.53577C13.5429 5.80617 13.6505 6.06586 13.8431 6.25563L14.8906 7.28762C15.2883 7.67932 15.2883 8.32068 14.8906 8.71238L13.8431 9.74437C13.6505 9.93414 13.5429 10.1938 13.5449 10.4642L13.5559 11.9347C13.5601 12.4928 13.1066 12.9463 12.5485 12.9421L11.078 12.9311C10.8076 12.9291 10.5479 13.0367 10.3581 13.2293L9.32615 14.2769C8.93445 14.6745 8.29309 14.6745 7.90139 14.2769L6.8694 13.2293C6.67963 13.0367 6.41994 12.9291 6.14954 12.9311L4.67908 12.9421C4.12095 12.9463 3.66744 12.4928 3.67162 11.9347L3.68263 10.4642C3.68465 10.1938 3.57708 9.93414 3.38445 9.74437L2.3369 8.71238C1.93929 8.32068 1.93929 7.67932 2.3369 7.28762L3.38445 6.25563C3.57708 6.06586 3.68465 5.80617 3.68263 5.53577L3.67162 4.06531C3.66744 3.50719 4.12095 3.05367 4.67908 3.05785L6.14954 3.06886C6.41994 3.07088 6.67963 2.96331 6.8694 2.77068L7.90139 1.72313Z" stroke="white" stroke-width="1.5"/>
</svg>
