<svg width="17" height="16" viewBox="0 0 17 16" fill="none" xmlns="http://www.w3.org/2000/svg">
<g clip-path="url(#clip0_806_5843)">
<path d="M14.7686 6.66699C14.7686 9.76642 12.1219 12.5718 10.3442 14.1065C9.42744 14.8979 8.10967 14.8979 7.19293 14.1065C5.41523 12.5718 2.76855 9.76642 2.76855 6.66699C2.76855 5.07569 3.4007 3.54957 4.52591 2.42435C5.65113 1.29913 7.17726 0.666992 8.76855 0.666992C10.3599 0.666992 11.886 1.29913 13.0112 2.42435C14.1364 3.54957 14.7686 5.07569 14.7686 6.66699Z" stroke="white" stroke-width="1.5" stroke-linecap="round" stroke-linejoin="round"/>
<path d="M8.76855 8.66699C9.87312 8.66699 10.7686 7.77156 10.7686 6.66699C10.7686 5.56242 9.87312 4.66699 8.76855 4.66699C7.66399 4.66699 6.76855 5.56242 6.76855 6.66699C6.76855 7.77156 7.66399 8.66699 8.76855 8.66699Z" stroke="white" stroke-width="1.5" stroke-linecap="round" stroke-linejoin="round"/>
</g>
<defs>
<clipPath id="clip0_806_5843">
<rect width="16" height="16" fill="white" transform="translate(0.768555)"/>
</clipPath>
</defs>
</svg>
