<svg width="81" height="80" viewBox="0 0 81 80" fill="none" xmlns="http://www.w3.org/2000/svg">
<g id="Ic_24H-Filled">
<g id="Vector">
<path d="M36.9822 45.1082C36.9975 45.0965 37.0123 45.0842 37.0267 45.0715C37.0405 45.0594 37.0539 45.0469 37.0669 45.0339C37.122 44.9788 37.1699 44.9178 37.2105 44.8511C37.324 44.6644 37.3808 44.4324 37.3808 44.155C37.3808 43.7783 37.2761 43.4905 37.0669 43.2917C36.947 43.1719 36.793 43.0882 36.6048 43.0406C36.4807 43.0092 36.3418 42.9935 36.1879 42.9935H33.0422L34.8538 41.2042C35.1165 40.9472 35.3497 40.698 35.5532 40.4565C35.573 40.433 35.5925 40.4096 35.6117 40.3863C35.757 40.21 35.8863 40.038 35.9996 39.8701C36.2926 39.4516 36.5018 39.033 36.6274 38.6145C36.7634 38.1959 36.8314 37.7669 36.8314 37.3275C36.8314 36.6264 36.6797 36.0404 36.3763 35.5696C36.0728 35.0882 35.6281 34.722 35.0422 34.4709C34.7782 34.3557 34.4846 34.267 34.1612 34.2046C33.7795 34.131 33.3564 34.0942 32.8919 34.0942C32.7559 34.0942 32.6198 34.0981 32.4838 34.1059C32.0966 34.128 31.7095 34.1817 31.3223 34.2668C31.2742 34.2777 31.2262 34.2891 31.1783 34.3012L31.1401 34.311L31.0994 34.3218C30.8838 34.3797 30.6711 34.4507 30.4611 34.535C30.2521 34.6188 30.0459 34.7158 29.8425 34.8258L29.8313 34.8319C29.795 34.8514 29.7603 34.8717 29.727 34.8927C29.5105 35.0293 29.3569 35.1974 29.2662 35.3969C29.1616 35.6167 29.125 35.8416 29.1564 36.0718C29.1982 36.302 29.2924 36.5061 29.4389 36.6839C29.5958 36.8618 29.7842 36.9769 30.0039 37.0292C30.2341 37.0816 30.4905 37.0449 30.773 36.9194C30.8214 36.8944 30.8694 36.8706 30.9168 36.8479L30.9249 36.8441C31.1171 36.7528 31.3016 36.6807 31.4785 36.6276C31.548 36.6068 31.6163 36.589 31.6833 36.5741C31.7302 36.5619 31.7766 36.5508 31.8226 36.5407L31.8323 36.5385C32.0601 36.489 32.2773 36.4642 32.4838 36.4642C32.63 36.4642 32.766 36.473 32.8919 36.4906C33.11 36.521 33.2976 36.5779 33.4547 36.6611C33.5118 36.6914 33.5649 36.7252 33.6139 36.7624C33.8755 36.9612 34.0063 37.2594 34.0063 37.6571C34.0063 37.971 33.9173 38.2849 33.7394 38.5988C33.6965 38.6793 33.6457 38.7639 33.5869 38.8526C33.4677 39.0327 33.316 39.2297 33.1316 39.4438L33.1239 39.4527C33.047 39.5418 32.9644 39.6339 32.8762 39.7289L30.1295 42.6011C30.0066 42.7301 29.8964 42.8609 29.7988 42.9935L29.786 43.0109L29.7742 43.0274C29.7151 43.1096 29.6609 43.1924 29.6115 43.276C29.486 43.5062 29.4232 43.7678 29.4232 44.0608C29.4232 44.4793 29.5226 44.7985 29.7214 45.0182C29.8653 45.1621 30.0685 45.2565 30.331 45.3014C30.4504 45.3219 30.582 45.3321 30.7259 45.3321H36.1879C36.5234 45.3321 36.7881 45.2575 36.9822 45.1082Z" fill="#9EA3B5"/>
<path fill-rule="evenodd" clip-rule="evenodd" d="M42.8523 43.4801V44.0451C42.8523 44.516 42.9727 44.8717 43.2133 45.1124C43.4645 45.353 43.8098 45.4734 44.2492 45.4734C44.6966 45.4734 45.0354 45.3544 45.2655 45.1164L45.2694 45.1124C45.4052 44.9707 45.5026 44.7958 45.5618 44.5876C45.6076 44.4266 45.6304 44.2458 45.6304 44.0451V43.4801H46.0071C46.381 43.4801 46.667 43.3968 46.8651 43.2302C46.8777 43.2197 46.8899 43.2088 46.9018 43.1975C46.9836 43.1238 47.0495 43.0373 47.0994 42.938C47.1177 42.9013 47.134 42.8629 47.148 42.8228C47.1931 42.6937 47.2157 42.5466 47.2157 42.3814C47.2157 42.1167 47.1542 41.8981 47.0312 41.7256C46.9992 41.6807 46.963 41.639 46.9226 41.6003C46.9158 41.5937 46.9088 41.5873 46.9018 41.5809C46.8899 41.5697 46.8777 41.5588 46.8651 41.5482C46.8218 41.5118 46.7742 41.4793 46.7224 41.4508C46.5376 41.3492 46.2992 41.2984 46.0071 41.2984H45.6304V35.5539C45.6304 35.0725 45.5153 34.7168 45.2851 34.4866C45.0549 34.2459 44.741 34.1256 44.3434 34.1256C43.9876 34.1256 43.679 34.1988 43.4174 34.3453C43.1558 34.4918 42.9203 34.722 42.7111 35.0359L38.8814 40.6235C38.8192 40.7101 38.7618 40.7935 38.7094 40.8738C38.6351 40.9875 38.5707 41.0949 38.5161 41.1959C38.4972 41.2308 38.4795 41.265 38.463 41.2984C38.4305 41.3641 38.4026 41.4269 38.3791 41.4867C38.3148 41.644 38.2724 41.8062 38.2521 41.9733C38.2488 41.9996 38.2462 42.026 38.2441 42.0526C38.2423 42.0745 38.2409 42.0965 38.2399 42.1186C38.2386 42.1485 38.2379 42.1785 38.2379 42.2087C38.2379 42.6377 38.3634 42.9569 38.6146 43.1661C38.8762 43.3754 39.2372 43.4801 39.6976 43.4801H42.8523ZM42.8523 41.2984V38.2465L40.7958 41.2984H42.8523Z" fill="#9EA3B5"/>
<path d="M47.786 39.366C47.7992 39.2961 47.8188 39.2321 47.8451 39.174C47.8785 39.0999 47.9226 39.0354 47.9774 38.9807C48.032 38.9261 48.0953 38.8821 48.1674 38.8486C48.2787 38.797 48.4107 38.7705 48.5636 38.7693L48.5748 38.7693C48.6 38.7693 48.6246 38.7699 48.6486 38.7712C48.6582 38.7717 48.6676 38.7723 48.677 38.773C48.8912 38.7893 49.0593 38.8585 49.1815 38.9807C49.2085 39.0065 49.233 39.0346 49.255 39.0648C49.3409 39.1825 49.3892 39.333 49.3998 39.5166C49.4013 39.5425 49.4021 39.5692 49.4021 39.5965V41.3618C49.4515 41.295 49.5054 41.2331 49.5637 41.176C49.6576 41.0842 49.763 41.005 49.8801 40.9385C49.985 40.8802 50.0953 40.833 50.211 40.7969C50.2412 40.7874 50.2719 40.7787 50.3029 40.7707C50.4646 40.7294 50.6361 40.7087 50.8176 40.7087C51.1791 40.7087 51.4763 40.7792 51.7092 40.9201C51.7777 40.9598 51.8411 41.0063 51.8996 41.0598C51.9081 41.0676 51.9166 41.0756 51.9249 41.0837L51.9379 41.0966L51.9391 41.0977C52.0608 41.2205 52.1588 41.3758 52.2331 41.5635C52.3495 41.8515 52.4078 42.2161 52.4078 42.6573V44.5876C52.4078 44.8572 52.3373 45.0625 52.1963 45.2034C52.1074 45.2924 51.994 45.3533 51.8562 45.3861C51.7757 45.4053 51.6868 45.4148 51.5897 45.4148C51.3262 45.4148 51.124 45.3444 50.983 45.2034C50.8421 45.0625 50.7716 44.8572 50.7716 44.5876V42.7217C50.7716 42.6997 50.7713 42.6783 50.7707 42.6573C50.7696 42.6206 50.7676 42.5854 50.7646 42.5517L50.7621 42.5261L50.7603 42.5106L50.758 42.4917L50.7565 42.4811C50.7502 42.4355 50.7418 42.3932 50.7314 42.3542C50.7152 42.2936 50.6942 42.2409 50.6683 42.1961L50.6619 42.1855C50.6504 42.1666 50.6379 42.1493 50.6246 42.1334C50.5889 42.0883 50.5464 42.0519 50.497 42.0243C50.4906 42.0207 50.4841 42.0173 50.4776 42.0141C50.4263 41.9886 50.3681 41.972 50.3029 41.9641C50.2737 41.9605 50.243 41.9588 50.211 41.9588C50.1362 41.9588 50.0661 41.9662 50.0005 41.981C49.9047 42.0026 49.8187 42.0399 49.7423 42.0931C49.6994 42.123 49.6595 42.1579 49.6227 42.1978C49.5706 42.252 49.5277 42.3132 49.494 42.3814C49.4452 42.4802 49.4158 42.5937 49.4059 42.7217C49.4034 42.7544 49.4021 42.7881 49.4021 42.8228V44.5876C49.4021 45.1391 49.1263 45.4148 48.5748 45.4148C48.4822 45.4148 48.397 45.4057 48.3194 45.3874C48.2936 45.3813 48.2687 45.3743 48.2445 45.3662C48.1566 45.3366 48.0797 45.2937 48.014 45.2373C48.0066 45.231 47.9994 45.2245 47.9923 45.2179C47.9872 45.2131 47.9823 45.2083 47.9774 45.2034C47.8364 45.0625 47.766 44.8572 47.766 44.5876V39.5965C47.766 39.5136 47.7726 39.4368 47.786 39.366Z" fill="#9EA3B5"/>
<path fill-rule="evenodd" clip-rule="evenodd" d="M7.16699 39.5996C7.16699 21.1898 22.0902 6.2666 40.5 6.2666C58.9098 6.2666 73.833 21.1898 73.833 39.5996C73.833 58.0094 58.9098 72.9326 40.5 72.9326C22.0902 72.9326 7.16699 58.0094 7.16699 39.5996ZM27.9275 46.8121C27.8976 46.7822 27.8685 46.7516 27.8402 46.7203C27.0731 45.8725 26.8862 44.8498 26.8862 44.0608C26.8862 43.394 27.0326 42.7061 27.3843 42.0612C27.3983 42.0357 27.4126 42.0104 27.4274 41.9854C27.6734 41.569 27.9679 41.1922 28.2924 40.8515L28.2959 40.8477L29.5584 39.5276C29.5197 39.5201 29.4807 39.512 29.4417 39.5031L29.4163 39.4972C28.6609 39.3174 28.0214 38.9119 27.5366 38.3625C27.5175 38.3409 27.4988 38.3189 27.4805 38.2967C27.0545 37.7794 26.7784 37.1749 26.6603 36.5256C26.6536 36.4888 26.6477 36.4517 26.6427 36.4146C26.5423 35.6786 26.6668 34.9641 26.9664 34.3258C27.348 33.5006 27.9813 32.9477 28.6236 32.6008C29.3012 32.233 30.0168 31.9598 30.7666 31.7915L30.7772 31.7891C31.4752 31.6356 32.1811 31.5572 32.8919 31.5572C33.976 31.5572 35.0612 31.7129 36.0491 32.1423C37.0417 32.5692 37.9075 33.2463 38.5157 34.206C38.8229 34.6855 39.0348 35.1941 39.1705 35.7142L40.6106 33.6131C40.9854 33.055 41.4937 32.5149 42.1778 32.1318C42.8831 31.7368 43.6347 31.5886 44.3434 31.5886C45.281 31.5886 46.3017 31.8912 47.0994 32.7132C47.9745 33.6025 48.1674 34.7261 48.1674 35.5539V36.2545C48.3081 36.2391 48.4446 36.2323 48.5748 36.2323C49.2807 36.2323 50.2047 36.4285 50.9562 37.1677C51.2996 37.5023 51.5315 37.8746 51.6833 38.2482C52.1178 38.328 52.5682 38.4785 53.0019 38.7371C53.7966 39.2045 54.3021 39.9024 54.5884 40.6207C54.8642 41.3068 54.9447 42.0191 54.9447 42.6573V44.5876C54.9447 45.2861 54.7554 46.2322 53.9903 46.9973C53.2354 47.7522 52.3015 47.9518 51.5897 47.9518C51.1444 47.9518 50.6123 47.8737 50.0914 47.6305C49.5478 47.8832 49.0004 47.9518 48.5748 47.9518C47.9699 47.9518 47.2286 47.8056 46.5676 47.3257C45.8153 47.8516 44.9636 48.0103 44.2492 48.0103C43.3358 48.0103 42.2972 47.7483 41.458 46.944C41.445 46.9316 41.4321 46.919 41.4194 46.9063C41.1414 46.6283 40.9287 46.327 40.7677 46.017H39.6976C39.6227 46.017 39.5465 46.0155 39.4691 46.0122C39.3155 46.297 39.116 46.5726 38.8608 46.8278C38.0299 47.6587 36.9889 47.8691 36.1879 47.8691H30.7259C29.9567 47.8691 28.8196 47.7042 27.9275 46.8121ZM35.0348 21.2694C35.6977 21.063 36.3626 20.8933 37.0274 20.7592C47.6464 18.6895 57.981 25.5449 60.1802 36.1677C62.0059 44.9861 57.6551 53.6478 50.0785 57.661C50.0073 57.689 49.9368 57.7206 49.8672 57.7559C49.0796 58.1549 48.2558 58.5058 47.398 58.8033L48.0067 57.1863C48.4747 55.9428 47.8461 54.5553 46.6026 54.0873C45.3591 53.6192 43.9716 54.2479 43.5036 55.4914L41.1123 61.8444C40.7236 62.8774 41.0875 64.0423 41.9951 64.6703L47.3584 68.3809C48.451 69.1369 49.9496 68.864 50.7055 67.7713C51.4615 66.6787 51.1886 65.1801 50.0959 64.4241L48.7166 63.4698C53.3403 61.9062 57.2519 59.0515 60.1236 55.4047C60.2433 55.2998 60.3544 55.1815 60.4545 55.05C62.1283 52.8529 63.4234 50.3866 64.282 47.7614C64.3479 47.5598 64.3858 47.3559 64.3978 47.1537C65.2975 44.1204 65.621 40.8777 65.2667 37.58C65.305 37.3482 65.3098 37.1069 65.2766 36.862C65.0941 35.5151 64.7974 34.1669 64.3808 32.8291C63.9643 31.4913 63.4432 30.2129 62.8288 29.0005C62.7179 28.7816 62.5781 28.5869 62.4165 28.4187C60.8605 25.5568 58.7677 23.0734 56.2981 21.0734C56.1662 20.8956 56.0073 20.7333 55.8224 20.5924C53.6252 18.9186 51.159 17.6235 48.5338 16.765C48.3585 16.7076 48.1814 16.6715 48.0053 16.6551C44.8295 15.6803 41.4185 15.3388 37.9512 15.7482C37.8466 15.7486 37.7408 15.7558 37.6343 15.7703C36.5643 15.9153 35.4933 16.1324 34.4274 16.4244C27.8782 18.1774 22.6009 22.4638 19.4464 27.9862C19.332 28.1865 19.2495 28.3963 19.1974 28.6097C18.5342 29.859 17.9782 31.1651 17.5373 32.5132C17.1235 33.7786 17.8138 35.1399 19.0792 35.5537C20.3446 35.9676 21.7059 35.2773 22.1197 34.0119C22.8106 31.8994 23.8531 29.9141 25.1999 28.1461C25.3176 27.9917 25.4138 27.8275 25.4889 27.6573C27.1458 25.6274 29.2094 23.9183 31.5893 22.6672C31.7121 22.6282 31.8334 22.5789 31.9521 22.5187C32.9257 22.0254 33.9547 21.6057 35.0348 21.2694ZM18.6077 40.7001C19.927 40.5213 21.1414 41.4459 21.3202 42.7652C21.4668 43.8467 21.7054 44.9321 22.0417 46.0122C22.378 47.0923 22.7977 48.1213 23.2911 49.0948C23.8928 50.2824 23.418 51.733 22.2304 52.3348C21.0428 52.9365 19.5922 52.4616 18.9904 51.2741C18.3761 50.0617 17.855 48.7833 17.4385 47.4455C17.0219 46.1077 16.7251 44.7594 16.5426 43.4126C16.3638 42.0933 17.2884 40.8789 18.6077 40.7001ZM28.9185 55.847C27.8594 55.0402 26.3469 55.2447 25.5401 56.3038C24.7333 57.3628 24.9378 58.8754 25.9969 59.6822C28.1941 61.3559 30.6603 62.651 33.2855 63.5096C34.5509 63.9235 35.9122 63.2331 36.3261 61.9677C36.7399 60.7024 36.0496 59.3411 34.7842 58.9272C32.6718 58.2363 30.6865 57.1938 28.9185 55.847Z" fill="#9EA3B5"/>
<path d="M30.7259 45.3321C30.2655 45.3321 29.9307 45.2275 29.7214 45.0182C29.5226 44.7985 29.4232 44.4793 29.4232 44.0608C29.4232 43.7678 29.486 43.5062 29.6115 43.276C29.7476 43.0458 29.9202 42.8208 30.1295 42.6011L32.8762 39.7289C33.2843 39.2894 33.572 38.9127 33.7394 38.5988C33.9173 38.2849 34.0063 37.971 34.0063 37.6571C34.0063 37.2594 33.8755 36.9612 33.6139 36.7624C33.3523 36.5636 32.9756 36.4642 32.4838 36.4642C32.2327 36.4642 31.9659 36.5008 31.6833 36.5741C31.4008 36.6369 31.0974 36.752 30.773 36.9194C30.4905 37.0449 30.2341 37.0816 30.0039 37.0292C29.7842 36.9769 29.5958 36.8618 29.4389 36.6839C29.2924 36.5061 29.1982 36.302 29.1564 36.0718C29.125 35.8416 29.1616 35.6167 29.2662 35.3969C29.3709 35.1667 29.5592 34.9784 29.8313 34.8319C30.3126 34.5703 30.8096 34.3819 31.3223 34.2668C31.8455 34.1517 32.3687 34.0942 32.8919 34.0942C33.7499 34.0942 34.4667 34.2198 35.0422 34.4709C35.6281 34.722 36.0728 35.0882 36.3763 35.5696C36.6797 36.0404 36.8314 36.6264 36.8314 37.3275C36.8314 37.7669 36.7634 38.1959 36.6274 38.6145C36.5018 39.033 36.2926 39.4516 35.9996 39.8701C35.7171 40.2887 35.3351 40.7334 34.8538 41.2042L32.3112 43.7156V42.9936L36.1879 42.9935C36.5751 42.9935 36.8681 43.0929 37.0669 43.2917C37.2761 43.4905 37.3808 43.7783 37.3808 44.155C37.3808 44.5316 37.2761 44.8246 37.0669 45.0339C36.8681 45.2327 36.5751 45.3321 36.1879 45.3321H30.7259Z" fill="#9EA3B5"/>
<path d="M44.2492 45.4734C43.8098 45.4734 43.4645 45.353 43.2133 45.1124C42.9727 44.8717 42.8523 44.516 42.8523 44.0451V43.4801H39.6976C39.2372 43.4801 38.8762 43.3754 38.6146 43.1661C38.3634 42.9569 38.2379 42.6377 38.2379 42.2087C38.2379 41.9576 38.285 41.7169 38.3791 41.4867C38.4733 41.2461 38.6407 40.9583 38.8814 40.6235L42.7111 35.0359C42.9203 34.722 43.1558 34.4918 43.4174 34.3453C43.679 34.1988 43.9876 34.1256 44.3434 34.1256C44.741 34.1256 45.0549 34.2459 45.2851 34.4866C45.5153 34.7168 45.6304 35.0725 45.6304 35.5539V41.2984H46.0071C46.4047 41.2984 46.7029 41.3926 46.9018 41.5809C47.111 41.7693 47.2157 42.0361 47.2157 42.3814C47.2157 42.7371 47.111 43.0092 46.9018 43.1975C46.7029 43.3859 46.4047 43.4801 46.0071 43.4801H45.6304V44.0451C45.6304 44.5055 45.5101 44.8613 45.2694 45.1124C45.0392 45.353 44.6992 45.4734 44.2492 45.4734ZM42.8523 41.2984L42.8524 37.5944H43.2919L40.3411 41.9734V41.2985L42.8523 41.2984Z" fill="#9EA3B5"/>
<path d="M48.5748 45.4148C48.3175 45.4148 48.1183 45.3444 47.9774 45.2034C47.8364 45.0625 47.766 44.8572 47.766 44.5876V39.5965C47.766 39.3269 47.8364 39.1216 47.9774 38.9807C48.1183 38.8397 48.3175 38.7693 48.5748 38.7693C48.8383 38.7693 49.0405 38.8397 49.1815 38.9807C49.3286 39.1216 49.4021 39.3269 49.4021 39.5965L49.4021 41.6004H49.2551C49.4021 41.3124 49.6104 41.0917 49.8801 40.9385C50.1558 40.7853 50.4683 40.7087 50.8176 40.7087C51.1791 40.7087 51.4763 40.7792 51.7092 40.9201C51.942 41.0549 52.1167 41.2694 52.2331 41.5635C52.3495 41.8515 52.4078 42.2161 52.4078 42.6573V44.5876C52.4078 44.8572 52.3373 45.0625 52.1963 45.2034C52.0554 45.3444 51.8532 45.4148 51.5897 45.4148C51.3262 45.4148 51.124 45.3444 50.983 45.2034C50.8421 45.0625 50.7716 44.8572 50.7716 44.5876V42.7217C50.7716 42.4459 50.7226 42.2498 50.6246 42.1334C50.5327 42.017 50.3948 41.9588 50.211 41.9588C49.9658 41.9588 49.7698 42.0384 49.6227 42.1978C49.4756 42.351 49.4021 42.5593 49.4021 42.8228V44.5876C49.4021 45.1391 49.1263 45.4148 48.5748 45.4148Z" fill="#9EA3B5"/>
</g>
</g>
</svg>
