<svg width="81" height="80" viewBox="0 0 81 80" fill="none" xmlns="http://www.w3.org/2000/svg">
<g id="Ic_Commitment-Filled">
<g id="Vector">
<path d="M67.3964 35.3917C67.3964 50.7483 53.0376 63.1972 35.3275 63.1972C34.4705 63.1984 33.6144 63.1696 32.7609 63.111C37.5215 67.3915 44.1738 70.0499 51.5344 70.0499C54.1311 70.0537 56.7171 69.7164 59.2261 69.0465C61.136 70.0172 65.5289 71.8798 72.9192 73.0932C73.5711 73.1982 74.0723 72.5161 73.8136 71.9061C72.6539 69.1645 71.6056 65.5113 71.2879 62.1794C75.3073 58.1458 77.7413 52.8659 77.7413 47.0942C77.7413 39.2091 73.2023 32.2525 66.2885 28.1196C67.011 30.4376 67.3964 32.8756 67.3964 35.3917Z" fill="#9EA3B5"/>
<path fill-rule="evenodd" clip-rule="evenodd" d="M63.6999 35.5785C63.6999 49.0424 50.9838 59.9569 35.2999 59.9569C32.4859 59.9609 29.6835 59.6026 26.9645 58.8912C24.8949 59.9221 20.1343 61.9002 12.1255 63.1888C11.4191 63.3002 10.8759 62.5758 11.1564 61.928C12.4131 59.0166 13.5491 55.1369 13.8934 51.5986C9.53755 47.315 6.8999 41.708 6.8999 35.5785C6.8999 22.1147 19.616 11.2002 35.2999 11.2002C50.9838 11.2002 63.6999 22.1147 63.6999 35.5785ZM23.9482 28.5268C22.944 28.5268 22.13 29.3408 22.13 30.3449C22.13 31.3491 22.944 32.1631 23.9482 32.1631H37.0516C38.0558 32.1631 38.8698 31.3491 38.8698 30.3449C38.8698 29.3408 38.0558 28.5268 37.0516 28.5268H23.9482ZM23.9481 40.9409C22.9439 40.9409 22.1299 41.7549 22.1299 42.759C22.1299 43.7632 22.9439 44.5772 23.9481 44.5772H47.3963C48.4005 44.5772 49.2145 43.7632 49.2145 42.759C49.2145 41.7549 48.4005 40.9409 47.3963 40.9409H23.9481Z" fill="#9EA3B5"/>
</g>
</g>
</svg>
