<svg width="81" height="80" viewBox="0 0 81 80" fill="none" xmlns="http://www.w3.org/2000/svg">
<g id="Ic_Calendar-Filled">
<g id="Vector">
<path fill-rule="evenodd" clip-rule="evenodd" d="M55.5487 10.8728C55.5454 9.38664 54.4264 8.27203 53.0112 8.2754C51.5632 8.27878 50.4771 9.3934 50.4804 10.8795L50.4837 13.2439L30.9346 13.2709L30.9313 10.9066C30.928 9.42042 29.8419 8.3058 28.3939 8.30918C26.9458 8.30918 25.8597 9.42717 25.863 10.9133L25.8663 13.4465C16.6841 14.3011 10.8326 20.6274 10.8457 30.4191L10.8819 55.3952C10.8951 66.0313 17.5497 72.7122 28.0187 72.6988L51.2437 72.6682C46.7062 69.8224 43.7005 64.8535 43.7005 59.1996C43.7005 55.8085 44.7817 52.6639 46.6262 50.076C46.2581 49.8134 46.0181 49.3828 46.0181 48.8961V44.2065C46.0181 43.4066 46.6665 42.7582 47.4663 42.7582H52.156C52.9559 42.7582 53.6043 43.4066 53.6043 44.2065V44.5038C55.5963 43.6646 57.7927 43.1996 60.1005 43.1996C64.205 43.1996 67.9572 44.6705 70.8336 47.1016L70.8095 30.2063C70.7996 20.4787 64.7341 14.1356 55.552 13.406L55.5487 10.8728ZM30.9412 18.4724L50.4903 18.4454L50.4935 21.1813C50.4935 22.6337 51.5829 23.782 53.031 23.7787C54.4461 23.7787 55.5618 22.6269 55.5618 21.1745L55.5585 18.5738C62.0091 19.1412 65.6029 22.9512 65.7445 30.213V31.3952L15.9173 31.4627L15.914 30.4123C15.9042 23.0863 19.4552 19.2628 25.8729 18.6109L25.8762 21.2117C25.8762 22.6674 26.9655 23.8124 28.4136 23.8091C29.8617 23.8091 30.9445 22.6607 30.9445 21.2049L30.9412 18.4724ZM18.4317 44.2065C18.4317 43.4066 19.0802 42.7582 19.88 42.7582H24.5697C25.3695 42.7582 26.0179 43.4066 26.0179 44.2065V48.8961C26.0179 49.696 25.3695 50.3444 24.5697 50.3444H19.88C19.0802 50.3444 18.4317 49.696 18.4317 48.8961V44.2065ZM19.88 55.1723C19.0802 55.1723 18.4317 55.8207 18.4317 56.6205V61.3102C18.4317 62.1101 19.0802 62.7585 19.88 62.7585H24.5697C25.3695 62.7585 26.0179 62.1101 26.0179 61.3102V56.6205C26.0179 55.8207 25.3695 55.1723 24.5697 55.1723H19.88ZM32.2251 44.2065C32.2251 43.4066 32.8735 42.7582 33.6734 42.7582H38.363C39.1629 42.7582 39.8113 43.4066 39.8113 44.2065V48.8961C39.8113 49.696 39.1629 50.3444 38.363 50.3444H33.6734C32.8735 50.3444 32.2251 49.696 32.2251 48.8961V44.2065ZM33.6734 55.1723C32.8735 55.1723 32.2251 55.8207 32.2251 56.6205V61.3102C32.2251 62.1101 32.8735 62.7585 33.6734 62.7585H38.363C39.1629 62.7585 39.8113 62.1101 39.8113 61.3102V56.6205C39.8113 55.8207 39.1629 55.1723 38.363 55.1723H33.6734Z" fill="#9EA3B5"/>
<path fill-rule="evenodd" clip-rule="evenodd" d="M60.1558 46.2066C52.7283 46.2066 46.7075 52.0731 46.7075 59.3101C46.7075 66.5471 52.7283 72.4135 60.1558 72.4135C67.5833 72.4135 73.6041 66.5471 73.6041 59.3101C73.6041 52.0731 67.5833 46.2066 60.1558 46.2066ZM61.9488 53.7924C61.9488 52.9926 61.3004 52.3441 60.5005 52.3441C59.7007 52.3441 59.0522 52.9926 59.0522 53.7924V60.5303C59.0522 61.102 59.3885 61.6202 59.9106 61.853L63.3589 63.391C64.0894 63.7168 64.9457 63.3887 65.2715 62.6582C65.5973 61.9277 65.2692 61.0714 64.5387 60.7456L61.9488 59.5905V53.7924Z" fill="#9EA3B5"/>
</g>
</g>
</svg>
