<svg width="81" height="80" viewBox="0 0 81 80" fill="none" xmlns="http://www.w3.org/2000/svg">
<g id="Ic_Guarantee-Filled">
<g id="Union">
<path fill-rule="evenodd" clip-rule="evenodd" d="M36.0431 8.32961C38.5569 5.74039 42.7132 5.74039 45.2269 8.32961L46.6614 9.8071C47.8783 11.0606 49.5548 11.7621 51.3019 11.7488L53.372 11.7331C56.944 11.706 59.8468 14.6081 59.8204 18.1801L59.8035 20.4723C59.7909 22.1864 60.4664 23.834 61.6787 25.0459L63.307 26.6736C65.8075 29.1731 65.8075 33.2267 63.307 35.7262L61.6787 37.3539C60.4664 38.5658 59.7909 40.2134 59.8035 41.9275L59.8204 44.2197C59.8468 47.7917 56.944 50.6938 53.372 50.6667L51.3019 50.651C49.5548 50.6377 47.8783 51.3392 46.6614 52.5927L45.2269 54.0702C42.7132 56.6594 38.5569 56.6594 36.0431 54.0702L34.6087 52.5927C33.3917 51.3392 31.7152 50.6377 29.9682 50.651L27.8981 50.6667C24.3261 50.6938 21.4233 47.7917 21.4497 44.2197L21.4666 41.9275C21.4792 40.2134 20.8037 38.5658 19.5914 37.3539L17.9631 35.7262C15.4626 33.2267 15.4626 29.1731 17.9631 26.6736L19.5914 25.0459C20.8037 23.834 21.4792 22.1864 21.4666 20.4723L21.4497 18.1801C21.4233 14.6081 24.3261 11.706 27.8981 11.7331L29.9682 11.7488C31.7152 11.7621 33.3917 11.0606 34.6087 9.8071L36.0431 8.32961ZM41.9929 30.8571L40.5242 29.3879C40.1878 29.0514 39.7319 28.8618 39.2561 28.8605C38.7803 28.8593 38.3233 29.0464 37.9851 29.3811L27.7741 38.8047C27.4022 39.1551 27.1581 39.6018 27.1356 40.1018C27.1248 40.3498 27.1652 40.5974 27.2543 40.8291C27.3435 41.0608 27.4794 41.2716 27.6537 41.4485L29.8474 43.6664L29.8492 43.6684L29.8514 43.6703C30.1904 44.0082 30.649 44.1987 31.1277 44.2002H31.1941C31.6941 44.1816 32.1419 43.9471 32.4974 43.5719L41.9867 33.4075C42.155 33.2407 42.2887 33.0423 42.3801 32.8237C42.4715 32.6051 42.5189 32.3706 42.5194 32.1336C42.52 31.8967 42.4738 31.6619 42.3835 31.4429C42.2931 31.2238 42.1604 31.0248 41.9929 30.8571ZM53.7964 27.8877L53.779 27.8703L51.8513 25.9623C51.7384 25.8497 51.6043 25.7607 51.4568 25.7002C51.3092 25.6398 51.1512 25.6092 50.9918 25.6101C50.7335 25.6104 50.4818 25.6919 50.2724 25.843C50.2724 25.8259 50.2741 25.809 50.2757 25.7932L50.2774 25.7744L50.2776 25.7712C50.303 25.4056 50.3411 24.855 49.9849 24.3558C49.5603 23.7834 49.094 23.243 48.5899 22.7391L48.5874 22.7364L48.5854 22.7346C47.8362 21.9966 46.2055 20.6067 43.7074 19.588C42.76 19.1992 41.7457 18.9995 40.7217 19.0002C38.9464 19.0002 37.5964 19.8012 37.0795 20.276C36.7868 20.5555 36.5198 20.8609 36.2819 21.1883C36.1682 21.3453 36.1082 21.5347 36.1108 21.7284C36.1134 21.9222 36.1784 22.1099 36.2963 22.2637C36.4142 22.4176 36.5785 22.5292 36.7649 22.5821C36.9513 22.6351 37.1498 22.6264 37.3309 22.5575C37.4887 22.4985 37.6498 22.4491 37.8136 22.4095C38.1545 22.3374 38.5041 22.3156 38.8514 22.3448C39.5933 22.4061 40.4708 22.7746 40.8589 23.0811C41.5171 23.6105 41.8337 24.3237 41.8861 25.3925C41.8962 25.6073 41.4518 26.4128 40.7611 27.332C40.6295 27.5054 40.5652 27.7207 40.5802 27.9379C40.5952 28.1551 40.6884 28.3595 40.8426 28.5132L42.7782 30.4488C42.9408 30.6118 43.1598 30.7063 43.39 30.7128C43.6202 30.7193 43.8441 30.6373 44.0157 30.4836C44.563 29.9948 45.3966 29.258 45.688 29.0774C46.1206 28.8113 46.4299 28.7601 46.5149 28.7511C46.7353 28.7295 46.957 28.7763 47.1499 28.885C47.1509 28.8946 47.1498 28.9044 47.1468 28.9136C47.1449 28.9194 47.1422 28.925 47.1389 28.9301C47.137 28.9331 47.1348 28.9358 47.1325 28.9385L47.0301 29.0358L47.0132 29.0515C46.9001 29.1642 46.8104 29.2982 46.7493 29.4457C46.6882 29.5932 46.6568 29.7514 46.6571 29.911C46.6574 30.0707 46.6892 30.2288 46.7508 30.3761C46.8124 30.5234 46.9026 30.6571 47.016 30.7694L48.9432 32.6768C49.0561 32.7893 49.1902 32.8783 49.3377 32.9386C49.4853 32.999 49.6433 33.0295 49.8027 33.0284C50.1227 33.0289 50.4302 32.9036 50.6588 32.6796L53.7807 29.596C53.7914 29.5853 53.802 29.5741 53.8122 29.5628C54.0216 29.3333 54.1364 29.0329 54.1335 28.7222C54.1306 28.4114 54.0101 28.1133 53.7964 27.8877Z" fill="#9EA3B5"/>
<path d="M45.3099 59.7934L52.5102 73.7102C53.0945 74.8395 54.6989 74.869 55.3244 73.762L58.9754 67.2997L55.269 61.2346C54.8082 60.4806 55.0459 59.4958 55.7999 59.035C56.5539 58.5742 57.5387 58.8119 57.9995 59.566L61.7473 65.6988L69.4007 66.4792C70.6656 66.6082 71.5684 65.2815 70.9841 64.1522L63.3646 49.4252C61.4862 53.0385 57.6957 55.4995 53.3355 55.4664L51.2654 55.4506C50.8287 55.4473 50.4095 55.6227 50.1053 55.9361L48.6709 57.4136C47.6755 58.4388 46.533 59.2321 45.3099 59.7934Z" fill="#9EA3B5"/>
<path d="M18.6078 50.5955L11.5939 64.152C11.0097 65.2813 11.9124 66.608 13.1773 66.479L20.7143 65.7105L24.4694 59.5658C24.9302 58.8118 25.9149 58.5741 26.6689 59.0349C27.423 59.4957 27.6607 60.4804 27.1999 61.2344L23.5502 67.2067L27.2537 73.7619C27.8791 74.8689 29.4835 74.8393 30.0678 73.7101L37.0454 60.2238C35.4136 59.6734 33.8839 58.7366 32.5992 57.4134L31.1648 55.9359C30.8605 55.6225 30.4414 55.4472 30.0047 55.4505L27.9346 55.4662C24.0634 55.4956 20.6414 53.559 18.6078 50.5955Z" fill="#9EA3B5"/>
</g>
</g>
</svg>
