<svg width="81" height="80" viewBox="0 0 81 80" fill="none" xmlns="http://www.w3.org/2000/svg">
<g id="Ic_Local-Filled">
<g id="Vector">
<path d="M33.034 66.4005L14.634 68.8005L11.834 55.6005L25.834 53.2005L33.034 66.4005Z" fill="#9EA3B5"/>
<path d="M73.034 65.2005L56.234 67.2005L53.434 54.0005L65.834 52.0005L73.034 65.2005Z" fill="#9EA3B5"/>
<path d="M33.4546 58.3052L32.6339 58.4006L39.4339 70.4006L52.6339 69.6006L49.8602 56.5246C49.2499 57.0769 48.6613 57.5914 48.104 58.0657C43.8607 61.6767 37.7792 61.7565 33.4546 58.3052Z" fill="#9EA3B5"/>
<path fill-rule="evenodd" clip-rule="evenodd" d="M45.5116 55.0194C51.6596 49.7876 61.434 39.7136 61.434 28.546C61.434 22.991 59.2426 17.6634 55.3418 13.7354C51.4411 9.80733 46.1505 7.60059 40.634 7.60059C35.1175 7.60059 29.827 9.80733 25.9262 13.7354C22.0254 17.6634 19.834 22.991 19.834 28.546C19.834 39.7136 29.6085 49.7876 35.7564 55.0194C38.6013 57.4404 42.6667 57.4404 45.5116 55.0194ZM50.234 28.4006C50.234 33.7025 45.936 38.0006 40.634 38.0006C35.3321 38.0006 31.034 33.7025 31.034 28.4006C31.034 23.0987 35.3321 18.8006 40.634 18.8006C45.936 18.8006 50.234 23.0987 50.234 28.4006Z" fill="#9EA3B5"/>
</g>
</g>
</svg>
