<svg width="81" height="80" viewBox="0 0 81 80" fill="none" xmlns="http://www.w3.org/2000/svg">
<g id="Ic_Quotes-Filled">
<g id="Vector">
<path fill-rule="evenodd" clip-rule="evenodd" d="M46.4768 12.443C46.4768 12.2525 46.4012 12.0697 46.2664 11.935C46.1317 11.8003 45.949 11.7246 45.7585 11.7246H25.6435C23.5477 11.7246 21.5377 12.5572 20.0557 14.0391C18.5738 15.5211 17.7412 17.5311 17.7412 19.6269V59.8568C17.7412 61.9526 18.5738 63.9626 20.0557 65.4446C21.5377 66.9265 23.5477 67.7591 25.6435 67.7591H54.3791C56.475 67.7591 58.4849 66.9265 59.9669 65.4446C61.4489 63.9626 62.2814 61.9526 62.2814 59.8568V56.693L61.331 57.6408L53.601 59.4211L53.3419 59.4472C53.0203 59.4797 52.6968 59.4851 52.3746 59.4635C51.5909 59.4317 50.8214 59.239 50.1142 58.8965C49.348 58.5253 48.6742 57.9877 48.1423 57.3228C47.6104 56.6579 47.2337 55.8826 47.0398 55.0535C46.8459 54.2244 46.8397 53.3624 47.0216 52.5306L47.0271 52.5055L48.7555 45.0458L62.279 31.4846C62.2651 31.3157 62.1918 31.1564 62.071 31.0356C61.9363 30.9009 61.7536 30.8252 61.563 30.8252H48.632C48.0604 30.8252 47.5123 30.5981 47.1081 30.1939C46.7039 29.7898 46.4768 29.2416 46.4768 28.67V12.443ZM23.4599 35.1733C23.4599 34.0306 24.3862 33.1043 25.5288 33.1043H34.4943C35.637 33.1043 36.5633 34.0306 36.5633 35.1733C36.5633 36.3159 35.637 37.2422 34.4943 37.2422H25.5288C24.3862 37.2422 23.4599 36.3159 23.4599 35.1733ZM23.4599 45.5178C23.4599 44.3751 24.3862 43.4488 25.5288 43.4488H41.3909C42.5336 43.4488 43.4599 44.3751 43.4599 45.5178C43.4599 46.6604 42.5336 47.5868 41.3909 47.5868H25.5288C24.3862 47.5868 23.4599 46.6604 23.4599 45.5178ZM23.4598 55.8631C23.4598 54.7204 24.3861 53.7941 25.5287 53.7941H41.3908C42.5335 53.7941 43.4598 54.7204 43.4598 55.8631C43.4598 57.0058 42.5335 57.9321 41.3908 57.9321H25.5287C24.3861 57.9321 23.4598 57.0058 23.4598 55.8631Z" fill="#9EA3B5"/>
<path d="M62.2814 50.8491V37.3423L52.52 47.131L51.064 53.4145C51.0138 53.6442 51.0155 53.8822 51.0691 54.1112C51.1226 54.3401 51.2266 54.5542 51.3735 54.7378C51.5204 54.9214 51.7064 55.0699 51.918 55.1724C52.1296 55.2749 52.3615 55.3288 52.5966 55.3302C52.7061 55.3413 52.8165 55.3413 52.9261 55.3302L59.2479 53.8743L62.2814 50.8491Z" fill="#9EA3B5"/>
<path d="M51.0275 14.1361C51.0275 13.6343 51.5315 13.3152 51.9048 13.6289C52.2207 13.8961 52.5053 14.207 52.7481 14.5616L60.6149 26.0078C60.7925 26.2696 60.5992 26.6077 60.2912 26.6077H51.6803C51.5072 26.6077 51.3411 26.5359 51.2187 26.408C51.0963 26.2802 51.0275 26.1068 51.0275 25.9259V14.1361Z" fill="#9EA3B5"/>
<path d="M52.52 47.131L51.064 53.4145C51.0138 53.6442 51.0155 53.8822 51.0691 54.1112C51.1226 54.3401 51.2266 54.5542 51.3735 54.7378C51.5204 54.9214 51.7064 55.0699 51.918 55.1724C52.1296 55.2749 52.3615 55.3288 52.5966 55.3302C52.7061 55.3413 52.8165 55.3413 52.9261 55.3302L59.2479 53.8743L70.3379 42.8145L63.5639 36.0559L52.52 47.131Z" fill="#9EA3B5"/>
<path d="M75.2019 35.7285L70.6808 31.2075C70.3836 30.9117 69.9814 30.7457 69.5621 30.7457C69.1428 30.7457 68.7405 30.9117 68.4433 31.2075L65.9299 33.7209L72.6962 40.4871L75.2096 37.9737C75.3567 37.8259 75.4732 37.6505 75.5524 37.4576C75.6316 37.2647 75.672 37.0581 75.6713 36.8495C75.6706 36.641 75.6288 36.4347 75.5482 36.2423C75.4677 36.0499 75.35 35.8753 75.2019 35.7285Z" fill="#9EA3B5"/>
</g>
</g>
</svg>
